<?xml version="1.0" standalone="no"?>
<!DOCTYPE svg PUBLIC "-//W3C//DTD SVG 20010904//EN"
 "http://www.w3.org/TR/2001/REC-SVG-20010904/DTD/svg10.dtd">
<svg version="1.0" xmlns="http://www.w3.org/2000/svg"
 width="500.000000pt" height="500.000000pt" viewBox="0 0 500.000000 500.000000"
 preserveAspectRatio="xMidYMid meet">
<metadata>
Created by potrace 1.14, written by Peter Selinger 2001-2017
</metadata>
<g transform="translate(0.000000,500.000000) scale(0.100000,-0.100000)"
fill="#000000" stroke="none">
<path d="M0 2500 l0 -2500 2500 0 2500 0 0 2500 0 2500 -2500 0 -2500 0 0
-2500z m4168 278 l2 -428 -50 0 -50 0 0 375 0 375 -372 2 -373 3 -3 39 c-6 71
-37 66 425 64 l418 -3 3 -427z m-1701 -10 c-2 -13 -21 -106 -41 -208 -20 -102
-39 -195 -42 -207 -4 -22 -9 -23 -99 -23 -85 0 -95 2 -95 18 0 31 80 259 139
395 l20 47 62 0 c58 0 61 -1 56 -22z m353 9 c0 -7 -13 -73 -29 -147 -17 -74
-35 -172 -42 -217 l-12 -83 -93 0 c-51 0 -96 4 -99 10 -11 18 64 242 132 393
l26 57 58 0 c41 0 59 -4 59 -13z m-1890 -502 l0 -375 373 -2 372 -3 0 -50 0
-50 -420 0 -420 0 -3 428 -2 427 50 0 50 0 0 -375z"/>
</g>
</svg>
